<svg xmlns="http://www.w3.org/2000/svg" xmlns:xlink="http://www.w3.org/1999/xlink" version="1.1" width="1500" height="906"><defs><clipPath id="BDTsWlCeoiUl"><path fill="none" stroke="none" d=" M 0 0 L 1524 0 L 1524 906 L 0 906 L 0 0 Z"/></clipPath></defs><g transform="scale(1,1)" clip-path="url(#BDTsWlCeoiUl)"><g><rect fill="rgb(255,255,255)" stroke="none" x="0" y="0" width="1524" height="906" fill-opacity="1"/><path fill="rgb(21,101,192)" stroke="none" paint-order="stroke fill markers" fill-rule="evenodd" d=" M 740 129 L 975 199 L 908 278 L 710 311 L 665 396 L 897 405 L 974 491 L 830 566 L 569 449 L 553 232 Z" fill-opacity="0.09803921568627451"/><path fill="none" stroke="rgb(97,97,97)" paint-order="fill stroke markers" d=" M 740 650 L 740 45" stroke-opacity="0.8" stroke-linecap="round" stroke-linejoin="round" stroke-miterlimit="10" stroke-width="2.5"/><path fill="none" stroke="rgb(211,47,47)" paint-order="fill stroke markers" d=" M 740 129 L 975 199" stroke-opacity="0.8" stroke-linecap="round" stroke-linejoin="round" stroke-miterlimit="10" stroke-width="2.5"/><path fill="none" stroke="rgb(21,101,192)" paint-order="fill stroke markers" d=" M 975 199 L 908 278" stroke-opacity="0.8" stroke-linecap="round" stroke-linejoin="round" stroke-miterlimit="10" stroke-width="2.5"/><path fill="none" stroke="rgb(211,47,47)" paint-order="fill stroke markers" d=" M 908 278 L 710 311" stroke-opacity="0.8" stroke-linecap="round" stroke-linejoin="round" stroke-miterlimit="10" stroke-width="2.5"/><path fill="none" stroke="rgb(21,101,192)" paint-order="fill stroke markers" d=" M 710 311 L 665 396" stroke-opacity="0.8" stroke-linecap="round" stroke-linejoin="round" stroke-miterlimit="10" stroke-width="2.5"/><path fill="none" stroke="rgb(211,47,47)" paint-order="fill stroke markers" d=" M 665 396 L 897 405" stroke-opacity="0.8" stroke-linecap="round" stroke-linejoin="round" stroke-miterlimit="10" stroke-width="2.5"/><path fill="none" stroke="rgb(21,101,192)" paint-order="fill stroke markers" d=" M 897 405 L 974 491" stroke-opacity="0.8" stroke-linecap="round" stroke-linejoin="round" stroke-miterlimit="10" stroke-width="2.5"/><path fill="none" stroke="rgb(21,101,192)" paint-order="fill stroke markers" d=" M 974 491 L 830 566" stroke-opacity="0.8" stroke-linecap="round" stroke-linejoin="round" stroke-miterlimit="10" stroke-width="2.5"/><path fill="none" stroke="rgb(211,47,47)" paint-order="fill stroke markers" d=" M 830 566 L 569 449" stroke-opacity="0.8" stroke-linecap="round" stroke-linejoin="round" stroke-miterlimit="10" stroke-width="2.5"/><path fill="none" stroke="rgb(21,101,192)" paint-order="fill stroke markers" d=" M 569 449 L 553 232" stroke-opacity="0.8" stroke-linecap="round" stroke-linejoin="round" stroke-miterlimit="10" stroke-width="2.5"/><path fill="none" stroke="rgb(21,101,192)" paint-order="fill stroke markers" d=" M 553 232 L 740 129" stroke-opacity="0.8" stroke-linecap="round" stroke-linejoin="round" stroke-miterlimit="10" stroke-width="2.5"/><path fill="rgb(21,101,192)" stroke="none" paint-order="stroke fill markers" d=" M 745 129 C 745 131.76142374915398 742.761423749154 134 740 134 C 737.238576250846 134 735 131.76142374915398 735 129 C 735 126.23857625084604 737.238576250846 124 740 124 C 742.761423749154 124 745 126.23857625084604 745 129 Z" fill-opacity="1"/><path fill="none" stroke="rgb(0,0,0)" paint-order="fill stroke markers" d=" M 745 129 C 745 131.76142374915398 742.761423749154 134 740 134 C 737.238576250846 134 735 131.76142374915398 735 129 C 735 126.23857625084604 737.238576250846 124 740 124 C 742.761423749154 124 745 126.23857625084604 745 129 Z" stroke-opacity="1" stroke-linecap="round" stroke-linejoin="round" stroke-miterlimit="10"/><text fill="rgb(21,101,192)" stroke="none" font-family="geogebra-sans-serif, sans-serif" font-size="16px" font-style="normal" font-weight="normal" text-decoration="normal" x="744" y="119" text-anchor="start" dominant-baseline="alphabetic" fill-opacity="1">A</text><text fill="none" stroke="rgb(255,255,255)" font-family="geogebra-sans-serif, sans-serif" font-size="16px" font-style="normal" font-weight="normal" text-decoration="normal" x="744" y="119" text-anchor="start" dominant-baseline="alphabetic" stroke-opacity="1" stroke-linejoin="bevel" stroke-miterlimit="10" stroke-width="3">A</text><text fill="rgb(21,101,192)" stroke="none" font-family="geogebra-sans-serif, sans-serif" font-size="16px" font-style="normal" font-weight="normal" text-decoration="normal" x="744" y="119" text-anchor="start" dominant-baseline="alphabetic" fill-opacity="1">A</text><path fill="rgb(21,101,192)" stroke="none" paint-order="stroke fill markers" d=" M 980 199 C 980 201.76142374915398 977.761423749154 204 975 204 C 972.238576250846 204 970 201.76142374915398 970 199 C 970 196.23857625084602 972.238576250846 194 975 194 C 977.761423749154 194 980 196.23857625084602 980 199 Z" fill-opacity="1"/><path fill="none" stroke="rgb(0,0,0)" paint-order="fill stroke markers" d=" M 980 199 C 980 201.76142374915398 977.761423749154 204 975 204 C 972.238576250846 204 970 201.76142374915398 970 199 C 970 196.23857625084602 972.238576250846 194 975 194 C 977.761423749154 194 980 196.23857625084602 980 199 Z" stroke-opacity="1" stroke-linecap="round" stroke-linejoin="round" stroke-miterlimit="10"/><path fill="rgb(21,101,192)" stroke="none" paint-order="stroke fill markers" d=" M 913 278 C 913 280.76142374915395 910.761423749154 283 908 283 C 905.238576250846 283 903 280.76142374915395 903 278 C 903 275.23857625084605 905.238576250846 273 908 273 C 910.761423749154 273 913 275.23857625084605 913 278 Z" fill-opacity="1"/><path fill="none" stroke="rgb(0,0,0)" paint-order="fill stroke markers" d=" M 913 278 C 913 280.76142374915395 910.761423749154 283 908 283 C 905.238576250846 283 903 280.76142374915395 903 278 C 903 275.23857625084605 905.238576250846 273 908 273 C 910.761423749154 273 913 275.23857625084605 913 278 Z" stroke-opacity="1" stroke-linecap="round" stroke-linejoin="round" stroke-miterlimit="10"/><path fill="rgb(21,101,192)" stroke="none" paint-order="stroke fill markers" d=" M 715 311 C 715 313.76142374915395 712.761423749154 316 710 316 C 707.238576250846 316 705 313.76142374915395 705 311 C 705 308.23857625084605 707.238576250846 306 710 306 C 712.761423749154 306 715 308.23857625084605 715 311 Z" fill-opacity="1"/><path fill="none" stroke="rgb(0,0,0)" paint-order="fill stroke markers" d=" M 715 311 C 715 313.76142374915395 712.761423749154 316 710 316 C 707.238576250846 316 705 313.76142374915395 705 311 C 705 308.23857625084605 707.238576250846 306 710 306 C 712.761423749154 306 715 308.23857625084605 715 311 Z" stroke-opacity="1" stroke-linecap="round" stroke-linejoin="round" stroke-miterlimit="10"/><path fill="rgb(21,101,192)" stroke="none" paint-order="stroke fill markers" d=" M 670 396 C 670 398.76142374915395 667.761423749154 401 665 401 C 662.238576250846 401 660 398.76142374915395 660 396 C 660 393.23857625084605 662.238576250846 391 665 391 C 667.761423749154 391 670 393.23857625084605 670 396 Z" fill-opacity="1"/><path fill="none" stroke="rgb(0,0,0)" paint-order="fill stroke markers" d=" M 670 396 C 670 398.76142374915395 667.761423749154 401 665 401 C 662.238576250846 401 660 398.76142374915395 660 396 C 660 393.23857625084605 662.238576250846 391 665 391 C 667.761423749154 391 670 393.23857625084605 670 396 Z" stroke-opacity="1" stroke-linecap="round" stroke-linejoin="round" stroke-miterlimit="10"/><path fill="rgb(21,101,192)" stroke="none" paint-order="stroke fill markers" d=" M 902 405 C 902 407.76142374915395 899.761423749154 410 897 410 C 894.238576250846 410 892 407.76142374915395 892 405 C 892 402.23857625084605 894.238576250846 400 897 400 C 899.761423749154 400 902 402.23857625084605 902 405 Z" fill-opacity="1"/><path fill="none" stroke="rgb(0,0,0)" paint-order="fill stroke markers" d=" M 902 405 C 902 407.76142374915395 899.761423749154 410 897 410 C 894.238576250846 410 892 407.76142374915395 892 405 C 892 402.23857625084605 894.238576250846 400 897 400 C 899.761423749154 400 902 402.23857625084605 902 405 Z" stroke-opacity="1" stroke-linecap="round" stroke-linejoin="round" stroke-miterlimit="10"/><path fill="rgb(21,101,192)" stroke="none" paint-order="stroke fill markers" d=" M 979 491 C 979 493.76142374915395 976.761423749154 496 974 496 C 971.238576250846 496 969 493.76142374915395 969 491 C 969 488.23857625084605 971.238576250846 486 974 486 C 976.761423749154 486 979 488.23857625084605 979 491 Z" fill-opacity="1"/><path fill="none" stroke="rgb(0,0,0)" paint-order="fill stroke markers" d=" M 979 491 C 979 493.76142374915395 976.761423749154 496 974 496 C 971.238576250846 496 969 493.76142374915395 969 491 C 969 488.23857625084605 971.238576250846 486 974 486 C 976.761423749154 486 979 488.23857625084605 979 491 Z" stroke-opacity="1" stroke-linecap="round" stroke-linejoin="round" stroke-miterlimit="10"/><path fill="rgb(21,101,192)" stroke="none" paint-order="stroke fill markers" d=" M 835 566 C 835 568.761423749154 832.761423749154 571 830 571 C 827.238576250846 571 825 568.761423749154 825 566 C 825 563.238576250846 827.238576250846 561 830 561 C 832.761423749154 561 835 563.238576250846 835 566 Z" fill-opacity="1"/><path fill="none" stroke="rgb(0,0,0)" paint-order="fill stroke markers" d=" M 835 566 C 835 568.761423749154 832.761423749154 571 830 571 C 827.238576250846 571 825 568.761423749154 825 566 C 825 563.238576250846 827.238576250846 561 830 561 C 832.761423749154 561 835 563.238576250846 835 566 Z" stroke-opacity="1" stroke-linecap="round" stroke-linejoin="round" stroke-miterlimit="10"/><path fill="rgb(21,101,192)" stroke="none" paint-order="stroke fill markers" d=" M 574 449 C 574 451.76142374915395 571.761423749154 454 569 454 C 566.238576250846 454 564 451.76142374915395 564 449 C 564 446.23857625084605 566.238576250846 444 569 444 C 571.761423749154 444 574 446.23857625084605 574 449 Z" fill-opacity="1"/><path fill="none" stroke="rgb(0,0,0)" paint-order="fill stroke markers" d=" M 574 449 C 574 451.76142374915395 571.761423749154 454 569 454 C 566.238576250846 454 564 451.76142374915395 564 449 C 564 446.23857625084605 566.238576250846 444 569 444 C 571.761423749154 444 574 446.23857625084605 574 449 Z" stroke-opacity="1" stroke-linecap="round" stroke-linejoin="round" stroke-miterlimit="10"/><path fill="rgb(21,101,192)" stroke="none" paint-order="stroke fill markers" d=" M 558 232 C 558 234.76142374915398 555.761423749154 237 553 237 C 550.238576250846 237 548 234.76142374915398 548 232 C 548 229.23857625084602 550.238576250846 227 553 227 C 555.761423749154 227 558 229.23857625084602 558 232 Z" fill-opacity="1"/><path fill="none" stroke="rgb(0,0,0)" paint-order="fill stroke markers" d=" M 558 232 C 558 234.76142374915398 555.761423749154 237 553 237 C 550.238576250846 237 548 234.76142374915398 548 232 C 548 229.23857625084602 550.238576250846 227 553 227 C 555.761423749154 227 558 229.23857625084602 558 232 Z" stroke-opacity="1" stroke-linecap="round" stroke-linejoin="round" stroke-miterlimit="10"/><path fill="none" stroke="rgb(46,125,50)" paint-order="fill stroke markers" d=" M 790 348 L 785 353 L 790 358 L 795 353 Z" stroke-opacity="1" stroke-linecap="square" stroke-miterlimit="10" stroke-width="2.5"/><path fill="rgb(46,125,50)" stroke="none" paint-order="stroke fill markers" fill-rule="evenodd" d=" M 790 348 L 785 353 L 790 358 L 795 353 Z" fill-opacity="1"/><text fill="rgb(46,125,50)" stroke="none" font-family="geogebra-sans-serif, sans-serif" font-size="16px" font-style="normal" font-weight="normal" text-decoration="normal" x="794" y="343" text-anchor="start" dominant-baseline="alphabetic" fill-opacity="1">P</text><text fill="none" stroke="rgb(255,255,255)" font-family="geogebra-sans-serif, sans-serif" font-size="16px" font-style="normal" font-weight="normal" text-decoration="normal" x="794" y="343" text-anchor="start" dominant-baseline="alphabetic" stroke-opacity="1" stroke-linejoin="bevel" stroke-miterlimit="10" stroke-width="3">P</text><text fill="rgb(46,125,50)" stroke="none" font-family="geogebra-sans-serif, sans-serif" font-size="16px" font-style="normal" font-weight="normal" text-decoration="normal" x="794" y="343" text-anchor="start" dominant-baseline="alphabetic" fill-opacity="1">P</text></g></g></svg>